<svg width="28" height="28" viewBox="0 0 28 28" fill="none" xmlns="http://www.w3.org/2000/svg">
<rect width="28" height="28" rx="14" fill="white"/>
<g clip-path="url(#clip0_2058_92681)">
<path fill-rule="evenodd" clip-rule="evenodd" d="M21.68 14.1813C21.68 13.614 21.6291 13.0686 21.5345 12.5449H14V15.6395H18.3055C18.12 16.6395 17.5564 17.4867 16.7091 18.054V20.0613H19.2945C20.8073 18.6686 21.68 16.6176 21.68 14.1813Z" fill="#4285F4"/>
<path fill-rule="evenodd" clip-rule="evenodd" d="M13.9997 22.0015C16.1597 22.0015 17.9706 21.2851 19.2942 20.0633L16.7088 18.056C15.9924 18.536 15.076 18.8197 13.9997 18.8197C11.916 18.8197 10.1524 17.4124 9.52331 15.5215H6.85059V17.5942C8.16695 20.2088 10.8724 22.0015 13.9997 22.0015Z" fill="#34A853"/>
<path fill-rule="evenodd" clip-rule="evenodd" d="M9.52364 15.5209C9.36364 15.0409 9.27273 14.5282 9.27273 14.0009C9.27273 13.4737 9.36364 12.9609 9.52364 12.4809V10.4082H6.85091C6.30909 11.4882 6 12.71 6 14.0009C6 15.2918 6.30909 16.5137 6.85091 17.5937L9.52364 15.5209Z" fill="#FBBC05"/>
<path fill-rule="evenodd" clip-rule="evenodd" d="M13.9997 9.18182C15.1742 9.18182 16.2288 9.58545 17.0579 10.3782L19.3524 8.08364C17.9669 6.79273 16.156 6 13.9997 6C10.8724 6 8.16695 7.79273 6.85059 10.4073L9.52331 12.48C10.1524 10.5891 11.916 9.18182 13.9997 9.18182Z" fill="#EA4335"/>
</g>
<defs>
<clipPath id="clip0_2058_92681">
<rect width="16" height="16" fill="white" transform="translate(6 6)"/>
</clipPath>
</defs>
</svg>
